<?xml version="1.0" standalone="no"?>
<!DOCTYPE svg PUBLIC "-//W3C//DTD SVG 20010904//EN"
 "http://www.w3.org/TR/2001/REC-SVG-20010904/DTD/svg10.dtd">
<svg version="1.0" xmlns="http://www.w3.org/2000/svg"
 width="332.000000pt" height="232.000000pt" viewBox="0 0 332.000000 232.000000"
 preserveAspectRatio="xMidYMid meet">

<g transform="translate(0.000000,232.000000) scale(0.100000,-0.100000)"
fill="#000000" stroke="none">
<path d="M1600 2129 c-31 -4 -78 -15 -105 -24 -69 -23 -208 -91 -236 -116 -13
-12 -34 -28 -46 -36 -20 -13 -21 -17 -8 -30 13 -12 19 -10 47 16 67 63 274
151 356 151 47 0 72 11 72 31 0 11 -6 18 -12 18 -7 -1 -38 -5 -68 -10z"/>
<path d="M1740 2116 c0 -16 30 -26 79 -26 82 0 314 -105 362 -164 16 -19 39
-15 39 7 -1 18 -106 90 -190 130 -126 58 -290 89 -290 53z"/>
<path d="M1605 2030 c-99 -15 -241 -79 -310 -139 l-31 -26 204 -202 c111 -112
205 -203 208 -203 2 0 4 131 4 290 0 226 -3 290 -12 289 -7 -1 -35 -5 -63 -9z
m3 -102 c7 -7 12 -24 12 -38 0 -53 -57 -69 -86 -25 -15 23 -15 27 0 50 18 27
54 33 74 13z m-118 -77 c7 -15 6 -24 -6 -36 -9 -9 -21 -14 -27 -12 -18 6 -31
33 -24 51 9 22 44 20 57 -3z m144 -117 c22 -21 20 -47 -4 -69 -44 -40 -107 25
-69 71 15 19 54 18 73 -2z"/>
<path d="M1740 1746 l0 -294 208 206 208 207 -30 28 c-67 61 -225 127 -338
141 l-48 6 0 -294z m168 182 c7 -7 12 -24 12 -38 0 -14 -5 -31 -12 -38 -28
-28 -88 -2 -88 38 0 40 60 66 88 38z m67 -148 c6 -20 -9 -50 -26 -50 -4 0 -15
7 -23 16 -12 12 -13 20 -6 35 14 25 47 24 55 -1z m-132 -81 c23 -37 -25 -68
-52 -35 -9 11 -10 20 -1 36 13 24 38 23 53 -1z"/>
<path d="M1121 1858 c-95 -118 -155 -255 -175 -400 -7 -44 -5 -48 13 -48 16 0
21 9 26 48 20 142 82 288 159 370 26 28 28 34 16 46 -13 12 -18 10 -39 -16z"/>
<path d="M2250 1869 c0 -6 18 -32 39 -58 69 -82 132 -234 146 -353 5 -40 10
-48 26 -48 19 0 20 4 14 43 -24 154 -90 310 -168 396 -27 31 -57 41 -57 20z"/>
<path d="M1188 1788 c-72 -97 -128 -226 -143 -330 l-6 -47 299 -3 299 -3 -210
208 c-115 114 -210 207 -212 207 -1 0 -14 -15 -27 -32z m110 -182 c-2 -15 -10
-21 -28 -21 -31 0 -40 33 -14 52 22 16 46 -1 42 -31z m-106 -73 c22 -20 23
-46 2 -67 -30 -31 -84 -9 -84 34 0 23 26 50 47 50 9 0 25 -7 35 -17z m238 -13
c23 -23 24 -33 10 -61 -16 -29 -76 -26 -86 4 -10 29 -6 49 14 65 22 17 39 15
62 -8z"/>
<path d="M1993 1616 c-106 -107 -193 -197 -193 -200 0 -3 131 -6 290 -6 225 0
290 3 290 13 -2 110 -129 386 -179 387 -8 0 -102 -87 -208 -194z m136 35 c15
-27 -11 -60 -36 -45 -23 14 -29 44 -11 55 21 14 37 10 47 -10z m151 -112 c17
-30 4 -68 -24 -75 -36 -9 -66 12 -66 44 0 35 17 52 52 52 17 0 31 -7 38 -21z
m-239 1 c22 -12 26 -59 7 -78 -17 -17 -48 -15 -70 5 -22 20 -23 32 -2 61 17
24 35 28 65 12z"/>
<path d="M945 1288 c15 -134 85 -299 172 -404 27 -33 33 -36 38 -21 5 12 -4
32 -30 65 -70 90 -126 234 -140 360 -6 53 -10 62 -27 62 -19 0 -19 -4 -13 -62z"/>
<path d="M1040 1328 c1 -46 30 -160 56 -221 25 -55 81 -145 109 -172 7 -7 79
59 221 203 l212 212 -299 0 -299 0 0 -22z m245 -48 c0 -18 -6 -26 -23 -28 -24
-4 -38 18 -28 44 3 9 15 14 28 12 17 -2 23 -10 23 -28z m169 -3 c8 -23 6 -31
-12 -49 -30 -30 -75 -16 -80 25 -5 38 15 59 52 55 23 -2 33 -10 40 -31z m-200
-113 c21 -20 20 -43 -1 -66 -31 -34 -83 -12 -83 36 0 44 52 63 84 30z"/>
<path d="M1790 1345 c0 -3 94 -100 209 -215 233 -233 206 -220 267 -130 57 85
96 189 109 294 l7 56 -296 0 c-163 0 -296 -2 -296 -5z m268 -74 c4 -29 -15
-43 -40 -30 -18 10 -24 39 -11 53 15 15 48 1 51 -23z m216 6 c9 -15 7 -21 -8
-32 -35 -26 -74 13 -44 43 16 16 38 12 52 -11z m-75 -73 c12 -15 21 -35 21
-46 0 -25 -44 -68 -70 -68 -28 0 -70 43 -70 71 0 13 10 33 22 46 29 31 71 30
97 -3z"/>
<path d="M2436 1288 c-14 -126 -64 -252 -140 -356 -33 -45 -40 -60 -31 -69 16
-14 37 7 89 90 65 102 107 220 121 335 6 57 6 62 -13 62 -16 0 -20 -9 -26 -62z"/>
<path d="M1753 982 c-19 -3 -23 -10 -23 -43 l0 -39 45 0 45 0 0 39 c0 41 -15
51 -67 43z"/>
<path d="M1600 940 l0 -40 45 0 45 0 0 40 0 40 -45 0 -45 0 0 -40z"/>
<path d="M1600 810 l0 -40 45 0 45 0 0 40 0 40 -45 0 -45 0 0 -40z"/>
<path d="M1730 810 l0 -40 45 0 45 0 0 40 0 40 -45 0 -45 0 0 -40z"/>
<path d="M260 450 c0 -122 1 -130 20 -130 16 0 19 8 22 58 l3 57 70 0 70 0 3
-57 c3 -50 6 -58 22 -58 19 0 20 8 20 130 0 123 -1 130 -20 130 -18 0 -20 -7
-20 -55 l0 -55 -75 0 -75 0 0 55 c0 48 -2 55 -20 55 -19 0 -20 -7 -20 -130z"/>
<path d="M650 567 c-61 -31 -86 -115 -54 -182 38 -80 152 -96 214 -30 30 32
39 118 17 162 -28 54 -119 79 -177 50z m121 -46 c24 -24 29 -38 29 -76 0 -61
-32 -95 -89 -95 -93 0 -127 139 -44 184 42 23 71 19 104 -13z"/>
<path d="M940 478 c0 -120 10 -142 69 -158 50 -13 94 -4 123 27 20 22 23 36
26 129 4 100 3 104 -17 104 -20 0 -21 -5 -21 -86 0 -114 -16 -144 -76 -144
-51 0 -63 23 -66 130 -3 81 -6 95 -20 98 -16 3 -18 -7 -18 -100z"/>
<path d="M1293 569 c-12 -6 -27 -24 -33 -40 -18 -43 6 -73 76 -96 64 -20 85
-42 65 -67 -17 -21 -80 -21 -109 0 -23 16 -42 12 -42 -10 0 -20 58 -41 109
-40 35 1 49 7 68 28 47 55 19 105 -68 126 -63 15 -80 42 -44 66 24 16 29 16
67 0 33 -12 44 -13 50 -3 4 7 1 18 -7 26 -17 18 -103 24 -132 10z"/>
<path d="M1540 450 l0 -130 85 0 c69 0 85 3 85 15 0 12 -14 15 -65 15 l-65 0
0 40 0 40 65 0 c58 0 65 2 65 20 0 18 -7 20 -65 20 l-65 0 0 35 0 35 65 0 c58
0 65 2 65 20 0 18 -7 20 -85 20 l-85 0 0 -130z"/>
<path d="M1950 451 c0 -124 1 -131 20 -131 17 0 20 7 20 50 l0 50 54 0 c70 0
100 22 100 74 0 59 -29 80 -119 84 l-75 4 0 -131z m152 64 c17 -38 -12 -65
-69 -65 l-43 0 0 45 0 45 50 0 c44 0 52 -3 62 -25z"/>
<path d="M2230 450 c0 -123 1 -130 20 -130 19 0 20 7 20 130 0 123 -1 130 -20
130 -19 0 -20 -7 -20 -130z"/>
<path d="M2370 560 c0 -17 8 -19 64 -22 l65 -3 -65 -88 c-35 -48 -64 -96 -64
-107 0 -19 7 -20 95 -20 78 0 95 3 95 15 0 12 -14 15 -70 15 -38 0 -70 2 -70
5 0 2 29 45 65 94 36 48 65 98 65 110 0 20 -5 21 -90 21 -83 0 -90 -2 -90 -20z"/>
<path d="M2640 560 c0 -18 7 -20 65 -20 36 0 65 -2 65 -5 0 -3 -29 -44 -65
-92 -89 -120 -88 -123 30 -123 78 0 95 3 95 15 0 12 -14 15 -66 15 -52 0 -65
3 -61 14 3 7 33 51 66 98 34 47 61 93 61 102 0 14 -14 16 -95 16 -88 0 -95 -1
-95 -20z"/>
<path d="M2975 513 c-15 -37 -38 -96 -51 -130 l-24 -63 24 0 c17 0 26 7 30 25
6 23 10 25 71 25 61 0 66 -2 75 -25 9 -23 51 -38 50 -17 -1 4 -22 61 -48 127
-42 107 -50 120 -73 123 -24 3 -29 -3 -54 -65z m79 -35 c10 -29 21 -59 23 -65
4 -10 -10 -13 -51 -13 l-56 0 19 48 c10 26 21 55 24 65 11 29 21 19 41 -35z"/>
</g>
</svg>
