<?xml version="1.0" standalone="no"?>
<!DOCTYPE svg PUBLIC "-//W3C//DTD SVG 20010904//EN"
 "http://www.w3.org/TR/2001/REC-SVG-20010904/DTD/svg10.dtd">
<svg version="1.0" xmlns="http://www.w3.org/2000/svg"
 width="63.000000pt" height="63.000000pt" viewBox="0 0 63.000000 63.000000"
 preserveAspectRatio="xMidYMid meet">

<g transform="translate(0.000000,63.000000) scale(0.100000,-0.100000)"
fill="#000000" stroke="none">
<path d="M351 495 c-1 -91 2 -135 9 -135 6 0 47 21 91 48 44 26 91 53 105 60
13 7 24 19 24 27 0 23 -98 102 -147 119 -84 29 -80 33 -82 -119z m69 30 c0 -8
-4 -15 -10 -15 -5 0 -10 7 -10 15 0 8 5 15 10 15 6 0 10 -7 10 -15z m50 -45
c0 -5 -4 -10 -10 -10 -5 0 -10 5 -10 10 0 6 5 10 10 10 6 0 10 -4 10 -10z
m-62 -47 c5 -17 -26 -29 -40 -15 -6 6 -7 15 -3 22 9 14 37 9 43 -7z"/>
<path d="M247 589 c-51 -12 -91 -33 -138 -76 -42 -38 -49 -60 -21 -70 9 -4 31
-16 47 -28 17 -12 60 -39 98 -60 l68 -37 -2 136 c0 75 -4 137 -7 139 -4 2 -24
0 -45 -4z m33 -99 c0 -5 -7 -10 -15 -10 -8 0 -15 5 -15 10 0 6 7 10 15 10 8 0
15 -4 15 -10z m-81 -34 c9 -10 8 -16 -4 -26 -19 -16 -41 1 -32 24 8 20 21 20
36 2z m71 -66 c0 -5 -4 -10 -9 -10 -6 0 -13 5 -16 10 -3 6 1 10 9 10 9 0 16
-4 16 -10z"/>
<path d="M34 395 c-33 -80 -3 -262 38 -227 8 6 38 24 68 40 88 46 141 82 135
91 -9 15 -161 101 -177 101 -9 0 -18 7 -22 15 -9 25 -26 17 -42 -20z m96 -35
c0 -5 -4 -10 -10 -10 -5 0 -10 5 -10 10 0 6 5 10 10 10 6 0 10 -4 10 -10z m38
-67 c5 -17 -26 -29 -40 -15 -6 6 -7 15 -3 22 9 14 37 9 43 -7z m62 9 c0 -13
-12 -22 -22 -16 -10 6 -1 24 13 24 5 0 9 -4 9 -8z"/>
<path d="M554 415 c-4 -8 -13 -15 -21 -15 -16 0 -170 -87 -178 -100 -6 -10 34
-37 148 -98 l77 -42 12 27 c19 47 22 164 4 206 -16 39 -33 47 -42 22z m-27
-101 c7 -18 -17 -38 -31 -24 -11 11 -1 40 14 40 6 0 13 -7 17 -16z m-97 -20
c0 -8 -4 -12 -10 -9 -5 3 -10 10 -10 16 0 5 5 9 10 9 6 0 10 -7 10 -16z m76
-71 c-10 -10 -19 5 -10 18 6 11 8 11 12 0 2 -7 1 -15 -2 -18z"/>
<path d="M215 224 c-44 -25 -85 -51 -91 -59 -6 -8 -18 -15 -27 -15 -57 0 5
-77 98 -121 104 -50 102 -51 104 106 1 74 0 135 -1 135 -2 0 -39 -21 -83 -46z
m65 -24 c0 -5 -7 -10 -15 -10 -8 0 -15 5 -15 10 0 6 7 10 15 10 8 0 15 -4 15
-10z m-110 -40 c0 -5 -4 -10 -10 -10 -5 0 -10 5 -10 10 0 6 5 10 10 10 6 0 10
-4 10 -10z m83 -36 c-3 -8 -12 -14 -19 -14 -20 0 -30 30 -13 40 17 11 40 -7
32 -26z"/>
<path d="M331 135 c2 -157 0 -156 104 -106 96 46 155 121 94 121 -10 0 -19 4
-19 9 0 8 -164 111 -176 111 -3 0 -4 -61 -3 -135z m58 61 c9 -10 8 -16 -4 -26
-19 -16 -41 1 -32 24 8 20 21 20 36 2z m81 -36 c0 -5 -4 -10 -10 -10 -5 0 -10
5 -10 10 0 6 5 10 10 10 6 0 10 -4 10 -10z m-100 -56 c0 -8 -4 -12 -10 -9 -5
3 -10 10 -10 16 0 5 5 9 10 9 6 0 10 -7 10 -16z"/>
</g>
</svg>

